<svg xmlns="http://www.w3.org/2000/svg" width="1200" height="260" viewBox="0 0 1200 260">
  <rect width="1200" height="260" fill="#f6f7fb"/>
  <style>.box{fill:#fff;stroke:#d9e2ef;stroke-width:2;rx:16}.t{font:700 20px Arial, sans-serif;fill:#172033}.a{stroke:#15b8a6;stroke-width:3;marker-end:url(#m)}</style>
  <defs><marker id="m" markerWidth="10" markerHeight="10" refX="9" refY="3" orient="auto"><path d="M0,0 L0,6 L9,3 z" fill="#15b8a6"/></marker></defs>
  <g transform="translate(40,70)"><rect class="box" width="150" height="80"/><text class="t" x="37" y="48">客户订单</text></g>
  <g transform="translate(230,70)"><rect class="box" width="150" height="80"/><text class="t" x="37" y="48">库存校验</text></g>
  <g transform="translate(420,70)"><rect class="box" width="150" height="80"/><text class="t" x="37" y="48">异常识别</text></g>
  <g transform="translate(610,70)"><rect class="box" width="150" height="80"/><text class="t" x="37" y="48">审批待办</text></g>
  <g transform="translate(800,70)"><rect class="box" width="150" height="80"/><text class="t" x="28" y="48">机器人通知</text></g>
  <g transform="translate(990,70)"><rect class="box" width="150" height="80"/><text class="t" x="28" y="48">AI日报复盘</text></g>
  <line class="a" x1="190" y1="110" x2="230" y2="110"/><line class="a" x1="380" y1="110" x2="420" y2="110"/><line class="a" x1="570" y1="110" x2="610" y2="110"/><line class="a" x1="760" y1="110" x2="800" y2="110"/><line class="a" x1="950" y1="110" x2="990" y2="110"/>
</svg>
